<svg xmlns="http://www.w3.org/2000/svg" viewBox="0 0 1200 920">
  <defs>
    <linearGradient id="sky" x1="0%" y1="0%" x2="100%" y2="100%">
      <stop offset="0%" stop-color="#dde7ec"/>
      <stop offset="45%" stop-color="#bfd4e4"/>
      <stop offset="100%" stop-color="#f6efe6"/>
    </linearGradient>
    <linearGradient id="sea" x1="0%" y1="0%" x2="0%" y2="100%">
      <stop offset="0%" stop-color="#517ca5"/>
      <stop offset="100%" stop-color="#17344f"/>
    </linearGradient>
  </defs>
  <rect width="1200" height="920" fill="url(#sky)"/>
  <circle cx="930" cy="170" r="82" fill="#f0dbc2"/>
  <path d="M0 530c147-51 269-61 366-30 105 34 167 48 265 12 73-27 126-76 221-76 129 0 220 76 348 80v404H0z" fill="#90afc4"/>
  <path d="M0 616c155 54 281 53 381-4 80-46 132-74 244-63 112 11 172 74 293 75 102 1 196-39 282-83v379H0z" fill="url(#sea)"/>
  <path d="M820 0c114 149 131 358 51 627" fill="none" stroke="#f8f2e7" stroke-opacity=".34" stroke-width="3"/>
  <rect x="742" y="458" width="286" height="272" rx="36" fill="#f6f1e8" fill-opacity=".88"/>
  <rect x="772" y="488" width="226" height="28" rx="14" fill="#d9c2a5"/>
  <rect x="772" y="534" width="182" height="18" rx="9" fill="#24435e" fill-opacity=".22"/>
  <rect x="772" y="568" width="205" height="18" rx="9" fill="#24435e" fill-opacity=".22"/>
  <rect x="772" y="602" width="160" height="18" rx="9" fill="#24435e" fill-opacity=".22"/>
</svg>
